%TF.GenerationSoftware,KiCad,Pcbnew,(7.0.0)*%
%TF.CreationDate,2024-09-05T22:43:12+09:00*%
%TF.ProjectId,kosame4,6b6f7361-6d65-4342-9e6b-696361645f70,rev?*%
%TF.SameCoordinates,Original*%
%TF.FileFunction,Legend,Top*%
%TF.FilePolarity,Positive*%
%FSLAX46Y46*%
G04 Gerber Fmt 4.6, Leading zero omitted, Abs format (unit mm)*
G04 Created by KiCad (PCBNEW (7.0.0)) date 2024-09-05 22:43:12*
%MOMM*%
%LPD*%
G01*
G04 APERTURE LIST*
%ADD10C,0.150000*%
%ADD11O,2.500000X2.000000*%
%ADD12R,1.397000X1.397000*%
%ADD13C,1.397000*%
%ADD14C,1.524000*%
%ADD15C,1.900000*%
%ADD16C,4.000000*%
%ADD17C,2.000000*%
G04 APERTURE END LIST*
D10*
%TO.C,U1*%
X33972500Y-41797200D02*
X33972500Y-39257200D01*
X64452500Y-41797200D02*
X33972500Y-41797200D01*
X33972500Y-39257200D02*
X64452500Y-39257200D01*
X64452500Y-39257200D02*
X64452500Y-41797200D01*
X33972500Y-26577200D02*
X33972500Y-24037200D01*
X64452500Y-26577200D02*
X33972500Y-26577200D01*
X33972500Y-24037200D02*
X64452500Y-24037200D01*
X64452500Y-24037200D02*
X64452500Y-26577200D01*
%TD*%
D11*
%TO.C,SW1*%
X36671299Y-30797499D03*
X43021299Y-28257499D03*
%TD*%
D12*
%TO.C,D1*%
X69341999Y-32006999D03*
D13*
X69342000Y-24387000D03*
%TD*%
D14*
%TO.C,U1*%
X35242500Y-25307200D03*
X37782500Y-25307200D03*
X40322500Y-25307200D03*
X42862500Y-25307200D03*
X45402500Y-25307200D03*
X47942500Y-25307200D03*
X50482500Y-25307200D03*
X53022500Y-25307200D03*
X55562500Y-25307200D03*
X58102500Y-25307200D03*
X60642500Y-25307200D03*
X63182500Y-25307200D03*
X63182500Y-40527200D03*
X60642500Y-40527200D03*
X58102500Y-40527200D03*
X55562500Y-40527200D03*
X53022500Y-40527200D03*
X50482500Y-40527200D03*
X47942500Y-40527200D03*
X45402500Y-40527200D03*
X42862500Y-40527200D03*
X40322500Y-40527200D03*
X37782500Y-40527200D03*
X35242500Y-40527200D03*
%TD*%
D11*
%TO.C,SW2*%
X55721299Y-30797499D03*
X62071299Y-28257499D03*
%TD*%
%TO.C,SW3*%
X74771299Y-30797499D03*
X81121299Y-28257499D03*
%TD*%
D12*
%TO.C,D4*%
X107314999Y-37334999D03*
D13*
X107315000Y-29715000D03*
%TD*%
D12*
%TO.C,D2*%
X69341999Y-42417999D03*
D13*
X69342000Y-34798000D03*
%TD*%
D12*
%TO.C,D3*%
X88264999Y-37334999D03*
D13*
X88265000Y-29715000D03*
%TD*%
D11*
%TO.C,SW4*%
X93821299Y-30797499D03*
X100171299Y-28257499D03*
%TD*%
%LPC*%
D15*
%TO.C,SW1*%
X35401300Y-33337500D03*
D16*
X40481300Y-33337500D03*
D15*
X45561300Y-33337500D03*
%TD*%
D12*
%TO.C,D1*%
X69341999Y-32006999D03*
D13*
X69342000Y-24387000D03*
%TD*%
D15*
%TO.C,SW2*%
X54451300Y-33337500D03*
D16*
X59531300Y-33337500D03*
D15*
X64611300Y-33337500D03*
%TD*%
%TO.C,SW3*%
X73501300Y-33337500D03*
D16*
X78581300Y-33337500D03*
D15*
X83661300Y-33337500D03*
%TD*%
D12*
%TO.C,D4*%
X107314999Y-37334999D03*
D13*
X107315000Y-29715000D03*
%TD*%
D12*
%TO.C,D2*%
X69341999Y-42417999D03*
D13*
X69342000Y-34798000D03*
%TD*%
D12*
%TO.C,D3*%
X88264999Y-37334999D03*
D13*
X88265000Y-29715000D03*
%TD*%
D15*
%TO.C,SW4*%
X92551300Y-33337500D03*
D16*
X97631300Y-33337500D03*
D15*
X102711300Y-33337500D03*
%TD*%
D17*
%TO.C,SW5*%
X98044000Y-23114000D03*
X91544000Y-23114000D03*
%TD*%
M02*
