%TF.GenerationSoftware,KiCad,Pcbnew,(7.0.0)*%
%TF.CreationDate,2024-09-05T22:43:12+09:00*%
%TF.ProjectId,kosame4,6b6f7361-6d65-4342-9e6b-696361645f70,rev?*%
%TF.SameCoordinates,Original*%
%TF.FileFunction,Copper,L1,Top*%
%TF.FilePolarity,Positive*%
%FSLAX46Y46*%
G04 Gerber Fmt 4.6, Leading zero omitted, Abs format (unit mm)*
G04 Created by KiCad (PCBNEW (7.0.0)) date 2024-09-05 22:43:12*
%MOMM*%
%LPD*%
G01*
G04 APERTURE LIST*
%TA.AperFunction,ComponentPad*%
%ADD10O,2.500000X2.000000*%
%TD*%
%TA.AperFunction,ComponentPad*%
%ADD11R,1.397000X1.397000*%
%TD*%
%TA.AperFunction,ComponentPad*%
%ADD12C,1.397000*%
%TD*%
%TA.AperFunction,ComponentPad*%
%ADD13C,1.524000*%
%TD*%
%TA.AperFunction,ComponentPad*%
%ADD14C,2.000000*%
%TD*%
%TA.AperFunction,ViaPad*%
%ADD15C,0.800000*%
%TD*%
%TA.AperFunction,Conductor*%
%ADD16C,0.250000*%
%TD*%
%TA.AperFunction,Conductor*%
%ADD17C,0.500000*%
%TD*%
G04 APERTURE END LIST*
D10*
%TO.P,SW1,1,1*%
%TO.N,Col0*%
X36671299Y-30797499D03*
%TO.P,SW1,2,2*%
%TO.N,Net-(D1-A)*%
X43021299Y-28257499D03*
%TD*%
D11*
%TO.P,D1,1,K*%
%TO.N,Row0*%
X69341999Y-32006999D03*
D12*
%TO.P,D1,2,A*%
%TO.N,Net-(D1-A)*%
X69342000Y-24387000D03*
%TD*%
D13*
%TO.P,U1,1,TX0/D3*%
%TO.N,LED*%
X35242500Y-25307200D03*
%TO.P,U1,2,RX1/D2*%
%TO.N,unconnected-(U1-RX1{slash}D2-Pad2)*%
X37782500Y-25307200D03*
%TO.P,U1,3,GND*%
%TO.N,GND*%
X40322500Y-25307200D03*
%TO.P,U1,4,GND*%
X42862500Y-25307200D03*
%TO.P,U1,5,2/D1/SDA*%
%TO.N,unconnected-(U1-2{slash}D1{slash}SDA-Pad5)*%
X45402500Y-25307200D03*
%TO.P,U1,6,3/D0/SCL*%
%TO.N,unconnected-(U1-3{slash}D0{slash}SCL-Pad6)*%
X47942500Y-25307200D03*
%TO.P,U1,7,4/D4*%
%TO.N,Row0*%
X50482500Y-25307200D03*
%TO.P,U1,8,5/C6*%
%TO.N,unconnected-(U1-5{slash}C6-Pad8)*%
X53022500Y-25307200D03*
%TO.P,U1,9,6/D7*%
%TO.N,unconnected-(U1-6{slash}D7-Pad9)*%
X55562500Y-25307200D03*
%TO.P,U1,10,7/E6*%
%TO.N,unconnected-(U1-7{slash}E6-Pad10)*%
X58102500Y-25307200D03*
%TO.P,U1,11,8/B4*%
%TO.N,unconnected-(U1-8{slash}B4-Pad11)*%
X60642500Y-25307200D03*
%TO.P,U1,12,9/B5*%
%TO.N,unconnected-(U1-9{slash}B5-Pad12)*%
X63182500Y-25307200D03*
%TO.P,U1,13,B6/10*%
%TO.N,unconnected-(U1-B6{slash}10-Pad13)*%
X63182500Y-40527200D03*
%TO.P,U1,14,B2/16*%
%TO.N,unconnected-(U1-B2{slash}16-Pad14)*%
X60642500Y-40527200D03*
%TO.P,U1,15,B3/14*%
%TO.N,unconnected-(U1-B3{slash}14-Pad15)*%
X58102500Y-40527200D03*
%TO.P,U1,16,B1/15*%
%TO.N,unconnected-(U1-B1{slash}15-Pad16)*%
X55562500Y-40527200D03*
%TO.P,U1,17,F7/A0*%
%TO.N,Col3*%
X53022500Y-40527200D03*
%TO.P,U1,18,F6/A1*%
%TO.N,Col2*%
X50482500Y-40527200D03*
%TO.P,U1,19,F5/A2*%
%TO.N,Col1*%
X47942500Y-40527200D03*
%TO.P,U1,20,F4/A3*%
%TO.N,Col0*%
X45402500Y-40527200D03*
%TO.P,U1,21,VCC*%
%TO.N,VCC*%
X42862500Y-40527200D03*
%TO.P,U1,22,RST*%
%TO.N,Reset*%
X40322500Y-40527200D03*
%TO.P,U1,23,GND*%
%TO.N,GND*%
X37782500Y-40527200D03*
%TO.P,U1,24,RAW*%
%TO.N,unconnected-(U1-RAW-Pad24)*%
X35242500Y-40527200D03*
%TD*%
D10*
%TO.P,SW2,1,1*%
%TO.N,Col1*%
X55721299Y-30797499D03*
%TO.P,SW2,2,2*%
%TO.N,Net-(D2-A)*%
X62071299Y-28257499D03*
%TD*%
%TO.P,SW3,1,1*%
%TO.N,Col2*%
X74771299Y-30797499D03*
%TO.P,SW3,2,2*%
%TO.N,Net-(D3-A)*%
X81121299Y-28257499D03*
%TD*%
D11*
%TO.P,D4,1,K*%
%TO.N,Row0*%
X107314999Y-37334999D03*
D12*
%TO.P,D4,2,A*%
%TO.N,Net-(D4-A)*%
X107315000Y-29715000D03*
%TD*%
D11*
%TO.P,D2,1,K*%
%TO.N,Row0*%
X69341999Y-42417999D03*
D12*
%TO.P,D2,2,A*%
%TO.N,Net-(D2-A)*%
X69342000Y-34798000D03*
%TD*%
D11*
%TO.P,D3,1,K*%
%TO.N,Row0*%
X88264999Y-37334999D03*
D12*
%TO.P,D3,2,A*%
%TO.N,Net-(D3-A)*%
X88265000Y-29715000D03*
%TD*%
D10*
%TO.P,SW4,1,1*%
%TO.N,Col3*%
X93821299Y-30797499D03*
%TO.P,SW4,2,2*%
%TO.N,Net-(D4-A)*%
X100171299Y-28257499D03*
%TD*%
D14*
%TO.P,SW5,1,1*%
%TO.N,Reset*%
X98044000Y-23114000D03*
%TO.P,SW5,2,2*%
%TO.N,GND*%
X91544000Y-23114000D03*
%TD*%
D15*
%TO.N,Row0*%
X68259000Y-30254900D03*
X73921100Y-38955100D03*
%TO.N,VCC*%
X83726100Y-39127100D03*
X98291300Y-40946100D03*
X64405600Y-37844500D03*
%TO.N,Net-(LED1-DOUT)*%
X44437700Y-39355400D03*
X55054800Y-38009900D03*
%TO.N,GND*%
X56682900Y-35807000D03*
X35777800Y-36406800D03*
%TO.N,Net-(LED2-DOUT)*%
X65431100Y-36935500D03*
X73030400Y-36935500D03*
%TO.N,Col1*%
X49591900Y-38735100D03*
%TO.N,Reset*%
X51950000Y-31350000D03*
X51950000Y-34050000D03*
%TD*%
D16*
%TO.N,Row0*%
X69342000Y-32007000D02*
X69342000Y-31751100D01*
X50482500Y-25307200D02*
X51738500Y-26563200D01*
X73921100Y-36330200D02*
X73921100Y-38955100D01*
X69342000Y-31751100D02*
X73921100Y-36330200D01*
X90466800Y-36156800D02*
X105113200Y-36156800D01*
X68259000Y-30254900D02*
X68259000Y-30924000D01*
X63813200Y-26563200D02*
X67504900Y-30254900D01*
X88265000Y-37335000D02*
X89288600Y-37335000D01*
X105113200Y-36156800D02*
X106291400Y-37335000D01*
X68259000Y-30924000D02*
X69342000Y-32007000D01*
X107315000Y-37335000D02*
X106291400Y-37335000D01*
X89288600Y-37335000D02*
X90466800Y-36156800D01*
X67504900Y-30254900D02*
X68259000Y-30254900D01*
X51738500Y-26563200D02*
X63813200Y-26563200D01*
%TO.N,Net-(D2-A)*%
X63646400Y-29102400D02*
X63646400Y-28257500D01*
X62071300Y-28257500D02*
X63646400Y-28257500D01*
X69342000Y-34798000D02*
X63646400Y-29102400D01*
%TO.N,Net-(D3-A)*%
X87730000Y-30250000D02*
X81788700Y-30250000D01*
X81121300Y-29582600D02*
X81121300Y-28257500D01*
X81788700Y-30250000D02*
X81121300Y-29582600D01*
X88265000Y-29715000D02*
X87730000Y-30250000D01*
D17*
%TO.N,VCC*%
X65150000Y-41900000D02*
X65150000Y-38588900D01*
X42862500Y-40527200D02*
X45335300Y-43000000D01*
X64050000Y-43000000D02*
X65150000Y-41900000D01*
X45335300Y-43000000D02*
X64050000Y-43000000D01*
X85545100Y-40946100D02*
X98291300Y-40946100D01*
X66366300Y-39805200D02*
X83048000Y-39805200D01*
X64405600Y-37844500D02*
X66366300Y-39805200D01*
X83726100Y-39127100D02*
X85545100Y-40946100D01*
X83048000Y-39805200D02*
X83726100Y-39127100D01*
X65150000Y-38588900D02*
X64405600Y-37844500D01*
D16*
%TO.N,Net-(LED1-DOUT)*%
X55054800Y-38009900D02*
X46340100Y-38009900D01*
X46340100Y-38009900D02*
X44994600Y-39355400D01*
X44994600Y-39355400D02*
X44437700Y-39355400D01*
D17*
%TO.N,GND*%
X40615000Y-30000000D02*
X46488600Y-30000000D01*
X46488600Y-30000000D02*
X52295600Y-35807000D01*
X42862500Y-25307200D02*
X40322500Y-25307200D01*
X40452500Y-29837500D02*
X40615000Y-30000000D01*
X37734600Y-34450000D02*
X35777800Y-36406800D01*
X52295600Y-35807000D02*
X56682900Y-35807000D01*
X37782500Y-32267500D02*
X37782500Y-40527200D01*
X40322500Y-29707500D02*
X40452500Y-29837500D01*
X40452500Y-29837500D02*
X40212500Y-29837500D01*
X40322500Y-25307200D02*
X40322500Y-29707500D01*
X37782500Y-34450000D02*
X37734600Y-34450000D01*
X40212500Y-29837500D02*
X37782500Y-32267500D01*
D16*
%TO.N,Net-(LED2-DOUT)*%
X65431100Y-36935500D02*
X73030400Y-36935500D01*
%TO.N,Col1*%
X47942500Y-40527200D02*
X47942500Y-40384500D01*
X47942500Y-40384500D02*
X49591900Y-38735100D01*
%TO.N,Reset*%
X51950000Y-34050000D02*
X51950000Y-31350000D01*
%TD*%
M02*
