%TF.GenerationSoftware,KiCad,Pcbnew,(7.0.0)*%
%TF.CreationDate,2024-09-05T22:43:12+09:00*%
%TF.ProjectId,kosame4,6b6f7361-6d65-4342-9e6b-696361645f70,rev?*%
%TF.SameCoordinates,Original*%
%TF.FileFunction,Copper,L2,Bot*%
%TF.FilePolarity,Positive*%
%FSLAX46Y46*%
G04 Gerber Fmt 4.6, Leading zero omitted, Abs format (unit mm)*
G04 Created by KiCad (PCBNEW (7.0.0)) date 2024-09-05 22:43:12*
%MOMM*%
%LPD*%
G01*
G04 APERTURE LIST*
%TA.AperFunction,SMDPad,CuDef*%
%ADD10R,2.200000X0.820000*%
%TD*%
%TA.AperFunction,ComponentPad*%
%ADD11O,2.500000X2.000000*%
%TD*%
%TA.AperFunction,ComponentPad*%
%ADD12R,1.397000X1.397000*%
%TD*%
%TA.AperFunction,SMDPad,CuDef*%
%ADD13R,0.950000X1.300000*%
%TD*%
%TA.AperFunction,ComponentPad*%
%ADD14C,1.397000*%
%TD*%
%TA.AperFunction,ComponentPad*%
%ADD15C,1.524000*%
%TD*%
%TA.AperFunction,ComponentPad*%
%ADD16C,2.000000*%
%TD*%
%TA.AperFunction,ViaPad*%
%ADD17C,0.800000*%
%TD*%
%TA.AperFunction,Conductor*%
%ADD18C,0.250000*%
%TD*%
%TA.AperFunction,Conductor*%
%ADD19C,0.500000*%
%TD*%
G04 APERTURE END LIST*
D10*
%TO.P,LED2,1,DOUT*%
%TO.N,Net-(LED2-DOUT)*%
X62699999Y-36829999D03*
%TO.P,LED2,2,VSS*%
%TO.N,GND*%
X56799999Y-36829999D03*
%TO.P,LED2,3,DIN*%
%TO.N,Net-(LED1-DOUT)*%
X56799999Y-38329999D03*
%TO.P,LED2,4,VDD*%
%TO.N,VCC*%
X62699999Y-38329999D03*
%TD*%
D11*
%TO.P,SW1,1,1*%
%TO.N,Col0*%
X36671299Y-30797499D03*
%TO.P,SW1,2,2*%
%TO.N,Net-(D1-A)*%
X43021299Y-28257499D03*
%TD*%
D12*
%TO.P,D1,1,K*%
%TO.N,Row0*%
X69341999Y-32006999D03*
D13*
X69341999Y-29971999D03*
%TO.P,D1,2,A*%
%TO.N,Net-(D1-A)*%
X69341999Y-26421999D03*
D14*
X69342000Y-24387000D03*
%TD*%
D15*
%TO.P,U1,1,TX0/D3*%
%TO.N,LED*%
X35242500Y-25307200D03*
%TO.P,U1,2,RX1/D2*%
%TO.N,unconnected-(U1-RX1{slash}D2-Pad2)*%
X37782500Y-25307200D03*
%TO.P,U1,3,GND*%
%TO.N,GND*%
X40322500Y-25307200D03*
%TO.P,U1,4,GND*%
X42862500Y-25307200D03*
%TO.P,U1,5,2/D1/SDA*%
%TO.N,unconnected-(U1-2{slash}D1{slash}SDA-Pad5)*%
X45402500Y-25307200D03*
%TO.P,U1,6,3/D0/SCL*%
%TO.N,unconnected-(U1-3{slash}D0{slash}SCL-Pad6)*%
X47942500Y-25307200D03*
%TO.P,U1,7,4/D4*%
%TO.N,Row0*%
X50482500Y-25307200D03*
%TO.P,U1,8,5/C6*%
%TO.N,unconnected-(U1-5{slash}C6-Pad8)*%
X53022500Y-25307200D03*
%TO.P,U1,9,6/D7*%
%TO.N,unconnected-(U1-6{slash}D7-Pad9)*%
X55562500Y-25307200D03*
%TO.P,U1,10,7/E6*%
%TO.N,unconnected-(U1-7{slash}E6-Pad10)*%
X58102500Y-25307200D03*
%TO.P,U1,11,8/B4*%
%TO.N,unconnected-(U1-8{slash}B4-Pad11)*%
X60642500Y-25307200D03*
%TO.P,U1,12,9/B5*%
%TO.N,unconnected-(U1-9{slash}B5-Pad12)*%
X63182500Y-25307200D03*
%TO.P,U1,13,B6/10*%
%TO.N,unconnected-(U1-B6{slash}10-Pad13)*%
X63182500Y-40527200D03*
%TO.P,U1,14,B2/16*%
%TO.N,unconnected-(U1-B2{slash}16-Pad14)*%
X60642500Y-40527200D03*
%TO.P,U1,15,B3/14*%
%TO.N,unconnected-(U1-B3{slash}14-Pad15)*%
X58102500Y-40527200D03*
%TO.P,U1,16,B1/15*%
%TO.N,unconnected-(U1-B1{slash}15-Pad16)*%
X55562500Y-40527200D03*
%TO.P,U1,17,F7/A0*%
%TO.N,Col3*%
X53022500Y-40527200D03*
%TO.P,U1,18,F6/A1*%
%TO.N,Col2*%
X50482500Y-40527200D03*
%TO.P,U1,19,F5/A2*%
%TO.N,Col1*%
X47942500Y-40527200D03*
%TO.P,U1,20,F4/A3*%
%TO.N,Col0*%
X45402500Y-40527200D03*
%TO.P,U1,21,VCC*%
%TO.N,VCC*%
X42862500Y-40527200D03*
%TO.P,U1,22,RST*%
%TO.N,Reset*%
X40322500Y-40527200D03*
%TO.P,U1,23,GND*%
%TO.N,GND*%
X37782500Y-40527200D03*
%TO.P,U1,24,RAW*%
%TO.N,unconnected-(U1-RAW-Pad24)*%
X35242500Y-40527200D03*
%TD*%
D10*
%TO.P,LED4,1,DOUT*%
%TO.N,unconnected-(LED4-DOUT-Pad1)*%
X100362499Y-37349999D03*
%TO.P,LED4,2,VSS*%
%TO.N,GND*%
X94462499Y-37349999D03*
%TO.P,LED4,3,DIN*%
%TO.N,Net-(LED3-DOUT)*%
X94462499Y-38849999D03*
%TO.P,LED4,4,VDD*%
%TO.N,VCC*%
X100362499Y-38849999D03*
%TD*%
%TO.P,LED1,1,DOUT*%
%TO.N,Net-(LED1-DOUT)*%
X43431299Y-36829999D03*
%TO.P,LED1,2,VSS*%
%TO.N,GND*%
X37531299Y-36829999D03*
%TO.P,LED1,3,DIN*%
%TO.N,LED*%
X37531299Y-38329999D03*
%TO.P,LED1,4,VDD*%
%TO.N,VCC*%
X43431299Y-38329999D03*
%TD*%
%TO.P,LED3,1,DOUT*%
%TO.N,Net-(LED3-DOUT)*%
X81749999Y-36829999D03*
%TO.P,LED3,2,VSS*%
%TO.N,GND*%
X75849999Y-36829999D03*
%TO.P,LED3,3,DIN*%
%TO.N,Net-(LED2-DOUT)*%
X75849999Y-38329999D03*
%TO.P,LED3,4,VDD*%
%TO.N,VCC*%
X81749999Y-38329999D03*
%TD*%
D11*
%TO.P,SW2,1,1*%
%TO.N,Col1*%
X55721299Y-30797499D03*
%TO.P,SW2,2,2*%
%TO.N,Net-(D2-A)*%
X62071299Y-28257499D03*
%TD*%
%TO.P,SW3,1,1*%
%TO.N,Col2*%
X74771299Y-30797499D03*
%TO.P,SW3,2,2*%
%TO.N,Net-(D3-A)*%
X81121299Y-28257499D03*
%TD*%
D12*
%TO.P,D4,1,K*%
%TO.N,Row0*%
X107314999Y-37334999D03*
D13*
X107314999Y-35299999D03*
%TO.P,D4,2,A*%
%TO.N,Net-(D4-A)*%
X107314999Y-31749999D03*
D14*
X107315000Y-29715000D03*
%TD*%
D12*
%TO.P,D2,1,K*%
%TO.N,Row0*%
X69341999Y-42417999D03*
D13*
X69341999Y-40382999D03*
%TO.P,D2,2,A*%
%TO.N,Net-(D2-A)*%
X69341999Y-36832999D03*
D14*
X69342000Y-34798000D03*
%TD*%
D12*
%TO.P,D3,1,K*%
%TO.N,Row0*%
X88264999Y-37334999D03*
D13*
X88264999Y-35299999D03*
%TO.P,D3,2,A*%
%TO.N,Net-(D3-A)*%
X88264999Y-31749999D03*
D14*
X88265000Y-29715000D03*
%TD*%
D11*
%TO.P,SW4,1,1*%
%TO.N,Col3*%
X93821299Y-30797499D03*
%TO.P,SW4,2,2*%
%TO.N,Net-(D4-A)*%
X100171299Y-28257499D03*
%TD*%
D16*
%TO.P,SW5,1,1*%
%TO.N,Reset*%
X98044000Y-23114000D03*
%TO.P,SW5,2,2*%
%TO.N,GND*%
X91544000Y-23114000D03*
%TD*%
D17*
%TO.N,Row0*%
X68259000Y-30254900D03*
X73921100Y-38955100D03*
%TO.N,VCC*%
X83726100Y-39127100D03*
X98291300Y-40946100D03*
X64405600Y-37844500D03*
%TO.N,Net-(LED1-DOUT)*%
X44437700Y-39355400D03*
X55054800Y-38009900D03*
%TO.N,GND*%
X56682900Y-35807000D03*
X35777800Y-36406800D03*
%TO.N,Net-(LED2-DOUT)*%
X65431100Y-36935500D03*
X73030400Y-36935500D03*
%TO.N,Col1*%
X49591900Y-38735100D03*
%TO.N,Reset*%
X51950000Y-31350000D03*
X51950000Y-34050000D03*
%TD*%
D18*
%TO.N,Net-(D1-A)*%
X69342000Y-24387000D02*
X69342000Y-26422000D01*
X44100000Y-24550000D02*
X44100000Y-27178800D01*
X65220000Y-22300000D02*
X46350000Y-22300000D01*
X69342000Y-26422000D02*
X65220000Y-22300000D01*
X46350000Y-22300000D02*
X44100000Y-24550000D01*
X44100000Y-27178800D02*
X43021300Y-28257500D01*
%TO.N,Row0*%
X70142100Y-40383000D02*
X70709100Y-40950000D01*
X74918900Y-40850000D02*
X84850000Y-40850000D01*
X69342000Y-40383000D02*
X69342000Y-42418000D01*
X88265000Y-37435000D02*
X88265000Y-37335000D01*
X69342000Y-29972000D02*
X68541900Y-29972000D01*
X68259000Y-30254900D02*
X68541900Y-29972000D01*
X88265000Y-35300000D02*
X88265000Y-37335000D01*
X73921100Y-38955100D02*
X73921100Y-39852200D01*
X69342000Y-40383000D02*
X70142100Y-40383000D01*
X73921100Y-39852200D02*
X74918900Y-40850000D01*
X84850000Y-40850000D02*
X88265000Y-37435000D01*
X72823300Y-40950000D02*
X73921100Y-39852200D01*
X107315000Y-35300000D02*
X107315000Y-37335000D01*
X70709100Y-40950000D02*
X72823300Y-40950000D01*
%TO.N,Net-(D2-A)*%
X69342000Y-34798000D02*
X69342000Y-36833000D01*
%TO.N,Net-(D3-A)*%
X88265000Y-31750000D02*
X88265000Y-29715000D01*
%TO.N,Net-(D4-A)*%
X107315000Y-29715000D02*
X107315000Y-31750000D01*
X100171300Y-28257500D02*
X101628800Y-29715000D01*
X101628800Y-29715000D02*
X107315000Y-29715000D01*
D19*
%TO.N,VCC*%
X98563600Y-40946100D02*
X100012500Y-39497200D01*
X64405600Y-37844500D02*
X64250100Y-38000000D01*
X83726100Y-39126100D02*
X82930000Y-38330000D01*
X98291300Y-40946100D02*
X98563600Y-40946100D01*
X62350000Y-38330000D02*
X64250100Y-38330000D01*
X83726100Y-39127100D02*
X83726100Y-39126100D01*
X42862500Y-40527200D02*
X43081300Y-40308400D01*
X64250100Y-38000000D02*
X64250100Y-38330000D01*
X43081300Y-40308400D02*
X43081300Y-38330000D01*
X100012500Y-39497200D02*
X100012500Y-38850000D01*
X82930000Y-38330000D02*
X81400000Y-38330000D01*
D18*
%TO.N,Net-(LED1-DOUT)*%
X43081300Y-36830000D02*
X44856400Y-36830000D01*
X44856400Y-38936700D02*
X44437700Y-39355400D01*
X55374900Y-38330000D02*
X55054800Y-38009900D01*
X57150000Y-38330000D02*
X55374900Y-38330000D01*
X44856400Y-36830000D02*
X44856400Y-38936700D01*
D19*
%TO.N,GND*%
X91746100Y-35200000D02*
X94351200Y-35200000D01*
X57150000Y-36274100D02*
X57150000Y-36830000D01*
X91544000Y-23114000D02*
X95569400Y-27139400D01*
X76200000Y-36830000D02*
X75850000Y-36480000D01*
X94812500Y-32535600D02*
X94812500Y-34738700D01*
X69150000Y-38550000D02*
X67400000Y-40300000D01*
X67400000Y-40300000D02*
X67400000Y-41850000D01*
X65200000Y-44050000D02*
X41305300Y-44050000D01*
X69650000Y-38550000D02*
X69150000Y-38550000D01*
X72141500Y-36058500D02*
X69650000Y-38550000D01*
X36201000Y-36830000D02*
X35777800Y-36406800D01*
X67400000Y-41850000D02*
X65200000Y-44050000D01*
X87865100Y-33130500D02*
X89676600Y-33130500D01*
X41305300Y-44050000D02*
X37782500Y-40527200D01*
X85434600Y-30700000D02*
X87865100Y-33130500D01*
X75850000Y-32100000D02*
X77250000Y-30700000D01*
X56682900Y-35807000D02*
X57150000Y-36274100D01*
X75850000Y-36480000D02*
X75850000Y-32100000D01*
X95569400Y-31778700D02*
X94812500Y-32535600D01*
X75428500Y-36058500D02*
X72141500Y-36058500D01*
X94812500Y-34738700D02*
X94812500Y-37350000D01*
X37881300Y-36830000D02*
X36201000Y-36830000D01*
X76200000Y-36830000D02*
X75428500Y-36058500D01*
X77250000Y-30700000D02*
X85434600Y-30700000D01*
X94351200Y-35200000D02*
X94812500Y-34738700D01*
X89676600Y-33130500D02*
X91746100Y-35200000D01*
X95569400Y-27139400D02*
X95569400Y-31778700D01*
D18*
%TO.N,LED*%
X33200000Y-27349700D02*
X33200000Y-35423800D01*
X36106200Y-38330000D02*
X37881300Y-38330000D01*
X33200000Y-35423800D02*
X36106200Y-38330000D01*
X35242500Y-25307200D02*
X33200000Y-27349700D01*
%TO.N,Net-(LED2-DOUT)*%
X76200000Y-38330000D02*
X74424900Y-38330000D01*
X62350000Y-36830000D02*
X64125100Y-36830000D01*
X64125100Y-36830000D02*
X65325600Y-36830000D01*
X74424900Y-38330000D02*
X73030400Y-36935500D01*
X65325600Y-36830000D02*
X65431100Y-36935500D01*
%TO.N,Net-(LED3-DOUT)*%
X93037400Y-38476500D02*
X93037400Y-38850000D01*
X87466500Y-34324800D02*
X88885700Y-34324800D01*
X94812500Y-38850000D02*
X93037400Y-38850000D01*
X84961300Y-36830000D02*
X87466500Y-34324800D01*
X81400000Y-36830000D02*
X84961300Y-36830000D01*
X88885700Y-34324800D02*
X93037400Y-38476500D01*
%TO.N,Col0*%
X45402500Y-40527200D02*
X45402500Y-36328700D01*
X45402500Y-36328700D02*
X43763800Y-34690000D01*
X43763800Y-32563800D02*
X41650000Y-30450000D01*
X41650000Y-30450000D02*
X37018800Y-30450000D01*
X37018800Y-30450000D02*
X36671300Y-30797500D01*
X43763800Y-34690000D02*
X43763800Y-32563800D01*
%TO.N,Col1*%
X50462600Y-37864400D02*
X50462600Y-34481100D01*
X49591900Y-38735100D02*
X50462600Y-37864400D01*
X50462600Y-34481100D02*
X54146200Y-30797500D01*
X55721300Y-30797500D02*
X54146200Y-30797500D01*
%TO.N,Col2*%
X72495300Y-30797500D02*
X74771300Y-30797500D01*
X52305300Y-42350000D02*
X63750000Y-42350000D01*
X67307900Y-35382600D02*
X69447300Y-33243200D01*
X67307900Y-38792100D02*
X67307900Y-35382600D01*
X69447300Y-33243200D02*
X70049600Y-33243200D01*
X50482500Y-40527200D02*
X52305300Y-42350000D01*
X70049600Y-33243200D02*
X72495300Y-30797500D01*
X63750000Y-42350000D02*
X67307900Y-38792100D01*
%TO.N,Col3*%
X53022500Y-38372600D02*
X56900000Y-34495100D01*
X56900000Y-32150000D02*
X58350000Y-30700000D01*
X56900000Y-34495100D02*
X56900000Y-32150000D01*
X58350000Y-30700000D02*
X66400000Y-30700000D01*
X77131300Y-26932500D02*
X89956300Y-26932500D01*
X53022500Y-40527200D02*
X53022500Y-38372600D01*
X75613800Y-28450000D02*
X77131300Y-26932500D01*
X66400000Y-30700000D02*
X68650000Y-28450000D01*
X89956300Y-26932500D02*
X93821300Y-30797500D01*
X68650000Y-28450000D02*
X75613800Y-28450000D01*
%TO.N,Reset*%
X71300000Y-27850000D02*
X77700000Y-21450000D01*
X57700000Y-28900000D02*
X58834800Y-30034800D01*
X96380000Y-21450000D02*
X98044000Y-23114000D01*
X49200000Y-40272449D02*
X49200000Y-42200000D01*
X51950000Y-34100000D02*
X51950000Y-37522449D01*
X68250000Y-27850000D02*
X71300000Y-27850000D01*
X51950000Y-34100000D02*
X51950000Y-34050000D01*
X54400000Y-28900000D02*
X57700000Y-28900000D01*
X51950000Y-31350000D02*
X54400000Y-28900000D01*
X49200000Y-42200000D02*
X41995300Y-42200000D01*
X51950000Y-37522449D02*
X49200000Y-40272449D01*
X77700000Y-21450000D02*
X96380000Y-21450000D01*
X58834800Y-30034800D02*
X66065200Y-30034800D01*
X66065200Y-30034800D02*
X68250000Y-27850000D01*
X41995300Y-42200000D02*
X40322500Y-40527200D01*
%TD*%
M02*
