M48
; DRILL file {KiCad (7.0.0)} date Thu Sep  5 22:43:12 2024
; FORMAT={-:-/ absolute / inch / decimal}
; #@! TF.CreationDate,2024-09-05T22:43:12+09:00
; #@! TF.GenerationSoftware,Kicad,Pcbnew,(7.0.0)
; #@! TF.FileFunction,Plated,1,2,PTH
FMAT,2
INCH
; #@! TA.AperFunction,Plated,PTH,ViaDrill
T1C0.0157
; #@! TA.AperFunction,Plated,PTH,ComponentDrill
T2C0.0315
; #@! TA.AperFunction,Plated,PTH,ComponentDrill
T3C0.0320
; #@! TA.AperFunction,Plated,PTH,ComponentDrill
T4C0.0512
%
G90
G05
T1
X1.4086Y-1.4333
X1.7495Y-1.5494
X1.9524Y-1.525
X2.0453Y-1.2343
X2.0453Y-1.3406
X2.1675Y-1.4965
X2.2316Y-1.4097
X2.5357Y-1.4899
X2.576Y-1.4542
X2.6874Y-1.1911
X2.8752Y-1.4542
X2.9103Y-1.5337
X3.2963Y-1.5404
X3.8697Y-1.6121
T3
X1.3875Y-0.9963
X1.3875Y-1.5956
X1.4875Y-0.9963
X1.4875Y-1.5956
X1.5875Y-0.9963
X1.5875Y-1.5956
X1.6875Y-0.9963
X1.6875Y-1.5956
X1.7875Y-0.9963
X1.7875Y-1.5956
X1.8875Y-0.9963
X1.8875Y-1.5956
X1.9875Y-0.9963
X1.9875Y-1.5956
X2.0875Y-0.9963
X2.0875Y-1.5956
X2.1875Y-0.9963
X2.1875Y-1.5956
X2.2875Y-0.9963
X2.2875Y-1.5956
X2.3875Y-0.9963
X2.3875Y-1.5956
X2.4875Y-0.9963
X2.4875Y-1.5956
X2.73Y-0.9601
X2.73Y-1.2601
X2.73Y-1.37
X2.73Y-1.67
X3.475Y-1.1699
X3.475Y-1.4699
X4.225Y-1.1699
X4.225Y-1.4699
T4
X3.6041Y-0.91
X3.86Y-0.91
T2
G00X1.4359Y-1.2125
M15
G01X1.4516Y-1.2125
M16
G05
G00X1.6859Y-1.1125
M15
G01X1.7016Y-1.1125
M16
G05
G00X2.1859Y-1.2125
M15
G01X2.2016Y-1.2125
M16
G05
G00X2.4359Y-1.1125
M15
G01X2.4516Y-1.1125
M16
G05
G00X2.9359Y-1.2125
M15
G01X2.9516Y-1.2125
M16
G05
G00X3.1859Y-1.1125
M15
G01X3.2016Y-1.1125
M16
G05
G00X3.6859Y-1.2125
M15
G01X3.7016Y-1.2125
M16
G05
G00X3.9359Y-1.1125
M15
G01X3.9516Y-1.1125
M16
G05
T0
M30
