%TF.GenerationSoftware,KiCad,Pcbnew,(7.0.0)*%
%TF.CreationDate,2024-09-05T22:43:12+09:00*%
%TF.ProjectId,kosame4,6b6f7361-6d65-4342-9e6b-696361645f70,rev?*%
%TF.SameCoordinates,Original*%
%TF.FileFunction,Profile,NP*%
%FSLAX46Y46*%
G04 Gerber Fmt 4.6, Leading zero omitted, Abs format (unit mm)*
G04 Created by KiCad (PCBNEW (7.0.0)) date 2024-09-05 22:43:12*
%MOMM*%
%LPD*%
G01*
G04 APERTURE LIST*
%TA.AperFunction,Profile*%
%ADD10C,0.100000*%
%TD*%
%TA.AperFunction,Profile*%
%ADD11C,0.120000*%
%TD*%
%TA.AperFunction,Profile*%
%ADD12C,0.010000*%
%TD*%
G04 APERTURE END LIST*
D10*
X109750340Y-20319650D02*
X28660340Y-20319650D01*
X26670495Y-22330484D02*
X26688389Y-43764878D01*
X26688422Y-43764879D02*
G75*
G03*
X28687900Y-45754458I1909978J-80021D01*
G01*
X28660340Y-20319657D02*
G75*
G03*
X26670495Y-22330484I-69840J-1920843D01*
G01*
X111760000Y-43720000D02*
X111760000Y-22320000D01*
X109770420Y-45719522D02*
G75*
G03*
X111760000Y-43720000I79980J1910022D01*
G01*
X111759996Y-22320000D02*
G75*
G03*
X109750340Y-20319651I-1930496J70200D01*
G01*
X28687900Y-45754458D02*
X109770420Y-45719511D01*
D11*
%TO.C,LED2*%
X58000000Y-35980000D02*
X61500000Y-35980000D01*
X58000000Y-39180000D02*
X58000000Y-35980000D01*
X61500000Y-35980000D02*
X61500000Y-39180000D01*
X61500000Y-39180000D02*
X58000000Y-39180000D01*
%TO.C,LED4*%
X95662500Y-36500000D02*
X99162500Y-36500000D01*
X95662500Y-39700000D02*
X95662500Y-36500000D01*
X99162500Y-36500000D02*
X99162500Y-39700000D01*
X99162500Y-39700000D02*
X95662500Y-39700000D01*
%TO.C,LED1*%
X38731300Y-35980000D02*
X42231300Y-35980000D01*
X38731300Y-39180000D02*
X38731300Y-35980000D01*
X42231300Y-35980000D02*
X42231300Y-39180000D01*
X42231300Y-39180000D02*
X38731300Y-39180000D01*
D12*
%TO.C,Ref03*%
X110820000Y-43180000D02*
G75*
G03*
X110820000Y-43180000I-1600000J0D01*
G01*
%TO.C,Ref02*%
X30810000Y-43180000D02*
G75*
G03*
X30810000Y-43180000I-1600000J0D01*
G01*
D11*
%TO.C,LED3*%
X77050000Y-35980000D02*
X80550000Y-35980000D01*
X77050000Y-39180000D02*
X77050000Y-35980000D01*
X80550000Y-35980000D02*
X80550000Y-39180000D01*
X80550000Y-39180000D02*
X77050000Y-39180000D01*
D12*
%TO.C,Ref00*%
X30810000Y-22860000D02*
G75*
G03*
X30810000Y-22860000I-1600000J0D01*
G01*
%TO.C,Ref01*%
X110820000Y-22860000D02*
G75*
G03*
X110820000Y-22860000I-1600000J0D01*
G01*
%TD*%
M02*
