M48
; DRILL file {KiCad (7.0.0)} date Tue Mar 28 15:01:17 2023
; FORMAT={-:-/ absolute / metric / decimal}
; #@! TF.CreationDate,2023-03-28T15:01:17+09:00
; #@! TF.GenerationSoftware,Kicad,Pcbnew,(7.0.0)
; #@! TF.FileFunction,Plated,1,2,PTH
FMAT,2
METRIC
; #@! TA.AperFunction,Plated,PTH,ViaDrill
T1C0.400
; #@! TA.AperFunction,Plated,PTH,ComponentDrill
T2C0.800
; #@! TA.AperFunction,Plated,PTH,ComponentDrill
T3C0.813
; #@! TA.AperFunction,Plated,PTH,ComponentDrill
T4C1.300
%
G90
G05
T1
X35.778Y-36.407
X44.438Y-39.355
X49.592Y-38.735
X51.95Y-31.35
X51.95Y-34.05
X55.055Y-38.01
X56.683Y-35.807
X64.406Y-37.844
X65.431Y-36.935
X68.259Y-30.255
X73.03Y-36.935
X73.921Y-38.955
X83.726Y-39.127
X98.291Y-40.946
T3
X35.242Y-25.307
X35.242Y-40.527
X37.782Y-25.307
X37.782Y-40.527
X40.322Y-25.307
X40.322Y-40.527
X42.862Y-25.307
X42.862Y-40.527
X45.402Y-25.307
X45.402Y-40.527
X47.942Y-25.307
X47.942Y-40.527
X50.482Y-25.307
X50.482Y-40.527
X53.023Y-25.307
X53.023Y-40.527
X55.562Y-25.307
X55.562Y-40.527
X58.102Y-25.307
X58.102Y-40.527
X60.642Y-25.307
X60.642Y-40.527
X63.182Y-25.307
X63.182Y-40.527
X69.342Y-24.387
X69.342Y-32.007
X69.342Y-34.798
X69.342Y-42.418
X88.265Y-29.715
X88.265Y-37.335
X107.315Y-29.715
X107.315Y-37.335
T4
X91.544Y-23.114
X98.044Y-23.114
T2
G00X36.471Y-30.797
M15
G01X36.871Y-30.797
M16
G05
G00X42.821Y-28.258
M15
G01X43.221Y-28.258
M16
G05
G00X55.521Y-30.797
M15
G01X55.921Y-30.797
M16
G05
G00X61.871Y-28.258
M15
G01X62.271Y-28.258
M16
G05
G00X74.571Y-30.797
M15
G01X74.971Y-30.797
M16
G05
G00X80.921Y-28.258
M15
G01X81.321Y-28.258
M16
G05
G00X93.621Y-30.797
M15
G01X94.021Y-30.797
M16
G05
G00X99.971Y-28.258
M15
G01X100.371Y-28.258
M16
G05
T0
M30
